<svg width="238" height="400" viewBox="0 0 238 400" fill="none" xmlns="http://www.w3.org/2000/svg">
<path d="M157.787 399.7L23.786 379.891C16.5109 378.812 9.96213 374.89 5.57926 368.987C1.19638 363.084 -0.661941 355.683 0.412776 348.411L48.4647 23.6765C49.54 16.4019 53.4623 9.85204 59.369 5.46768C65.2756 1.08332 72.6829 -0.776482 79.9614 0.297365L213.999 20.1062C221.274 21.1852 227.823 25.1073 232.206 31.0104C236.589 36.9135 238.447 44.3145 237.372 51.5865L189.32 376.321C188.786 379.925 187.546 383.389 185.672 386.515C183.798 389.641 181.327 392.367 178.399 394.538C175.47 396.709 172.143 398.282 168.607 399.168C165.07 400.054 161.394 400.234 157.787 399.7V399.7Z" fill="#243762"/>
<path d="M58.87 30.6116L13.5071 337.278L179.88 361.863L225.243 55.1963L58.87 30.6116Z" fill="#ECF1F7"/>
<path d="M58.8608 30.6077L55.4556 53.6279L221.829 78.2126L225.234 55.1924L58.8608 30.6077Z" fill="#F7A374"/>
<path d="M93.8874 379.511C93.3529 379.513 92.8192 379.47 92.2917 379.384C89.5325 378.957 87.0464 377.477 85.3559 375.256C83.6655 373.035 82.9023 370.246 83.2269 367.474C83.5514 364.702 84.9384 362.164 87.0963 360.393C89.2542 358.622 92.015 357.757 94.7983 357.978C97.5816 358.199 100.171 359.49 102.021 361.58C103.872 363.669 104.84 366.395 104.722 369.183C104.604 371.971 103.409 374.605 101.389 376.531C99.3684 378.457 96.6795 379.525 93.8874 379.511V379.511ZM93.8874 359.575C92.1494 359.572 90.4472 360.069 88.9836 361.006C87.52 361.942 86.3567 363.28 85.6321 364.859C84.9076 366.438 84.6524 368.192 84.8969 369.912C85.1415 371.631 85.8755 373.245 87.0115 374.559C88.1475 375.874 89.6376 376.835 91.3044 377.327C92.9712 377.819 94.7445 377.822 96.4129 377.335C98.0813 376.849 99.5747 375.893 100.715 374.582C101.855 373.271 102.595 371.66 102.845 369.941C103.188 367.573 102.58 365.165 101.153 363.243C99.7261 361.321 97.5967 360.042 95.2293 359.684C94.7796 359.611 94.3248 359.575 93.8693 359.575H93.8874Z" fill="#ECF1F7"/>
<path d="M117.895 27.6999C117.727 27.7178 117.556 27.7178 117.388 27.6999C116.932 27.6378 116.494 27.4859 116.098 27.2529C115.703 27.02 115.357 26.7107 115.082 26.343C114.807 25.9753 114.608 25.5566 114.496 25.1113C114.385 24.666 114.363 24.2029 114.432 23.749C114.58 22.8339 115.073 22.0102 115.81 21.4473C116.179 21.1754 116.598 20.9793 117.043 20.8705C117.488 20.7616 117.95 20.7421 118.403 20.813C118.855 20.8796 119.29 21.0345 119.683 21.2691C120.076 21.5037 120.418 21.8133 120.691 22.1802C120.964 22.5471 121.161 22.9641 121.273 23.4074C121.384 23.8508 121.407 24.3117 121.341 24.7639C121.211 25.5835 120.792 26.3297 120.161 26.8681C119.529 27.4064 118.725 27.7015 117.895 27.6999ZM117.895 22.4804C117.499 22.5034 117.121 22.656 116.819 22.9147C116.518 23.1733 116.31 23.5238 116.227 23.9121C116.173 24.3526 116.283 24.7976 116.535 25.1626C116.809 25.5145 117.203 25.7532 117.641 25.8332C118.085 25.8929 118.535 25.7757 118.893 25.507C119.072 25.3816 119.222 25.22 119.335 25.0326C119.447 24.8453 119.519 24.6364 119.545 24.4196C119.583 24.2012 119.575 23.9774 119.522 23.7622C119.468 23.5471 119.372 23.3452 119.237 23.1691C119.106 22.99 118.941 22.8386 118.751 22.7236C118.561 22.6085 118.35 22.532 118.131 22.4985L117.895 22.4804Z" fill="#ECF1F7"/>
<path d="M171.967 35.6741C171.793 35.6916 171.616 35.6916 171.442 35.6741L129.011 29.4035C128.555 29.3366 128.117 29.1805 127.722 28.9442C127.327 28.7078 126.982 28.3958 126.708 28.0261C126.168 27.2768 125.934 26.3499 126.055 25.4344C126.122 24.9798 126.277 24.5428 126.513 24.1482C126.748 23.7537 127.06 23.4095 127.428 23.1351C127.797 22.8608 128.216 22.6618 128.662 22.5494C129.108 22.4371 129.571 22.4136 130.026 22.4803L172.475 28.751C172.928 28.8192 173.363 28.9759 173.755 29.2123C174.147 29.4486 174.488 29.7599 174.76 30.1284C175.038 30.4941 175.239 30.9122 175.351 31.3576C175.463 31.8029 175.484 32.2664 175.413 32.72C175.359 33.1661 175.216 33.5967 174.991 33.986C174.767 34.3752 174.466 34.7152 174.107 34.9855C173.492 35.4502 172.738 35.693 171.967 35.6741V35.6741ZM129.518 24.2927C129.115 24.2924 128.725 24.4367 128.419 24.6994C128.113 24.9621 127.911 25.3258 127.85 25.7244C127.802 26.1672 127.918 26.6123 128.177 26.9749C128.305 27.1508 128.468 27.2991 128.655 27.4112C128.841 27.5232 129.049 27.5967 129.265 27.6274L171.713 33.8981C172.14 33.9445 172.569 33.8229 172.907 33.559C173.246 33.295 173.468 32.9095 173.527 32.4844C173.564 32.2689 173.555 32.048 173.502 31.8358C173.449 31.6237 173.353 31.4249 173.219 31.252C173.087 31.073 172.922 30.9216 172.732 30.8065C172.543 30.6915 172.332 30.615 172.112 30.5815L129.754 24.2927H129.518Z" fill="#ECF1F7"/>
<path d="M180.562 268.052L64.5122 250.889C63.6061 250.759 62.6854 250.994 61.9515 251.54C61.2176 252.087 60.73 252.902 60.5955 253.807L56.1349 283.892C56.068 284.342 56.0905 284.8 56.2011 285.241C56.3117 285.682 56.5081 286.098 56.7792 286.463C57.0503 286.828 57.3908 287.136 57.7812 287.37C58.1715 287.604 58.6041 287.758 59.0542 287.825L158.277 302.486L168.486 316.586L170.299 304.281L175.086 304.987C175.994 305.117 176.917 304.884 177.654 304.337C178.391 303.791 178.882 302.976 179.021 302.07L183.463 271.967C183.533 271.519 183.513 271.062 183.404 270.622C183.295 270.182 183.1 269.768 182.831 269.404C182.561 269.04 182.221 268.733 181.832 268.501C181.443 268.269 181.011 268.116 180.562 268.052Z" fill="#28BF1F"/>
<path d="M158.277 303.392H158.132L58.9093 288.713C57.7672 288.543 56.7379 287.931 56.0443 287.009C55.7021 286.548 55.4554 286.024 55.3184 285.467C55.1814 284.91 55.1569 284.331 55.2464 283.765L59.689 253.68C59.8675 252.541 60.491 251.52 61.4226 250.84C62.3542 250.16 63.5177 249.878 64.6574 250.055L91.4758 254.024C91.5948 254.042 91.7092 254.083 91.8124 254.145C91.9156 254.207 92.0055 254.289 92.077 254.386C92.1486 254.483 92.2004 254.593 92.2295 254.709C92.2585 254.826 92.2643 254.948 92.2464 255.067C92.2286 255.186 92.1874 255.3 92.1254 255.403C92.0633 255.506 91.9815 255.596 91.8847 255.667C91.7879 255.739 91.6779 255.791 91.5611 255.82C91.4443 255.849 91.3229 255.855 91.2038 255.837L64.3854 251.886C63.7172 251.787 63.0371 251.956 62.4935 252.357C61.9499 252.758 61.587 253.357 61.4841 254.024L57.0234 284.127C56.9469 284.772 57.1223 285.421 57.513 285.94C57.7098 286.209 57.9589 286.437 58.2455 286.608C58.5322 286.779 58.8504 286.891 59.1812 286.936L158.404 301.616C158.644 301.633 158.868 301.745 159.027 301.927C159.185 302.108 159.264 302.346 159.247 302.586C159.23 302.826 159.119 303.05 158.937 303.208C158.755 303.366 158.518 303.446 158.277 303.429V303.392Z" fill="#243762"/>
<path d="M199.021 143.363L82.9714 126.2C82.0632 126.07 81.1404 126.304 80.4036 126.85C79.6667 127.397 79.1755 128.212 79.0366 129.118L74.5941 159.203C74.5246 159.652 74.5447 160.11 74.6531 160.551C74.7615 160.992 74.9562 161.407 75.2259 161.773C75.4955 162.138 75.8349 162.447 76.2244 162.681C76.6139 162.915 77.0458 163.069 77.4953 163.136L176.718 177.798L186.945 191.898L188.758 179.574L193.563 180.299C194.47 180.428 195.39 180.194 196.124 179.647C196.858 179.101 197.346 178.286 197.48 177.381L201.941 147.278C202.071 146.372 201.836 145.452 201.289 144.718C200.742 143.985 199.927 143.498 199.021 143.363V143.363Z" fill="#28BF1F"/>
<path d="M187.525 194.217L176.21 178.649L77.3684 164.024C76.2348 163.841 75.2188 163.219 74.5401 162.293C73.8615 161.367 73.5747 160.212 73.7419 159.076C73.782 158.84 73.9122 158.629 74.105 158.487C74.2977 158.345 74.5381 158.283 74.7755 158.315C74.8934 158.333 75.0067 158.373 75.1088 158.435C75.211 158.497 75.3 158.578 75.3707 158.674C75.4414 158.77 75.4926 158.879 75.5211 158.994C75.5496 159.11 75.5551 159.23 75.537 159.348C75.4884 159.679 75.5056 160.016 75.5879 160.341C75.6701 160.665 75.8157 160.97 76.0162 161.237C76.2168 161.505 76.4683 161.731 76.7564 161.901C77.0445 162.071 77.3634 162.183 77.6949 162.23L177.28 176.964L186.437 189.65L188.051 178.649L193.745 179.483C194.387 179.567 195.038 179.398 195.558 179.012C195.831 178.813 196.062 178.561 196.236 178.272C196.41 177.982 196.525 177.661 196.574 177.326L199.529 157.391C199.569 157.155 199.7 156.944 199.892 156.802C200.085 156.66 200.325 156.598 200.563 156.63C200.681 156.647 200.794 156.688 200.896 156.75C200.998 156.811 201.087 156.892 201.158 156.988C201.229 157.084 201.28 157.193 201.308 157.309C201.337 157.425 201.342 157.545 201.324 157.663L198.369 177.598C198.181 178.733 197.556 179.748 196.626 180.426C195.697 181.104 194.539 181.39 193.4 181.223L189.52 180.643L187.525 194.217Z" fill="#243762"/>
<path d="M52.1275 182.129L168.177 199.292C169.083 199.426 169.898 199.914 170.445 200.647C170.992 201.381 171.227 202.301 171.097 203.207L166.636 233.309C166.502 234.214 166.014 235.029 165.28 235.576C164.546 236.123 163.626 236.357 162.72 236.227L63.4968 221.547L49.6252 232.077L51.4385 219.771L46.6332 219.065C46.1837 218.998 45.7518 218.844 45.3623 218.61C44.9728 218.376 44.6335 218.067 44.3638 217.702C44.0941 217.336 43.8995 216.921 43.7911 216.48C43.6826 216.039 43.6626 215.581 43.732 215.132L48.1745 185.047C48.3133 184.137 48.8071 183.319 49.548 182.772C50.2889 182.225 51.2164 181.994 52.1275 182.129Z" fill="#F7A374"/>
<path d="M163.227 237.17H162.575L100.651 228.017C100.532 228.001 100.417 227.961 100.314 227.9C100.21 227.839 100.119 227.758 100.047 227.662C99.9747 227.566 99.9219 227.457 99.8917 227.341C99.8616 227.224 99.8546 227.103 99.8713 226.984C99.8879 226.865 99.9279 226.751 99.9889 226.647C100.05 226.544 100.131 226.453 100.227 226.381C100.323 226.308 100.432 226.256 100.548 226.226C100.665 226.195 100.786 226.188 100.905 226.205L162.847 235.357C163.489 235.432 164.135 235.264 164.66 234.886C164.932 234.69 165.163 234.442 165.337 234.156C165.511 233.869 165.626 233.551 165.675 233.219L170.118 203.116C170.169 202.785 170.155 202.447 170.075 202.122C169.995 201.796 169.851 201.49 169.652 201.221C169.453 200.951 169.203 200.723 168.916 200.551C168.628 200.379 168.31 200.265 167.978 200.216C167.859 200.201 167.744 200.162 167.641 200.101C167.538 200.04 167.448 199.959 167.377 199.862C167.305 199.766 167.255 199.656 167.227 199.539C167.2 199.422 167.196 199.301 167.217 199.183C167.252 198.949 167.379 198.738 167.569 198.595C167.759 198.453 167.997 198.391 168.232 198.422C169.369 198.605 170.388 199.229 171.067 200.159C171.747 201.089 172.031 202.249 171.859 203.388L167.416 233.473C167.333 234.04 167.138 234.585 166.842 235.077C166.546 235.569 166.156 235.996 165.693 236.336C164.975 236.858 164.115 237.149 163.227 237.17V237.17Z" fill="#243762"/>
<path d="M17.68 309.055L13.5057 337.275L179.879 361.86L184.053 333.64L17.68 309.055Z" fill="white"/>
<path d="M42.2452 326.953C41.951 328.931 41.0765 330.778 39.7322 332.259C38.3879 333.741 36.6343 334.791 34.6931 335.276C32.7518 335.762 30.7101 335.661 28.8262 334.987C26.9422 334.313 25.3006 333.095 24.1089 331.488C22.9172 329.882 22.2289 327.958 22.1311 325.96C22.0333 323.963 22.5303 321.981 23.5594 320.265C24.5884 318.55 26.1032 317.178 27.9123 316.323C29.7214 315.469 31.7434 315.169 33.7228 315.463C35.0373 315.658 36.3005 316.11 37.4403 316.793C38.58 317.476 39.5739 318.376 40.3653 319.443C41.1567 320.51 41.7301 321.723 42.0526 323.011C42.3752 324.3 42.4406 325.639 42.2452 326.953Z" fill="#28BF1F"/>
<path opacity="0.33" d="M165.04 354.265C164.594 354.301 164.145 354.301 163.699 354.265L55.8991 338.316C54.7249 338.152 53.5953 337.755 52.5769 337.148C51.5586 336.541 50.6721 335.737 49.9697 334.782C48.9274 333.346 48.33 331.635 48.2516 329.862C48.1733 328.09 48.6173 326.333 49.5287 324.81C50.4402 323.287 51.7788 322.066 53.3787 321.296C54.9785 320.527 56.7691 320.244 58.5284 320.483L166.346 336.431C168.503 336.873 170.425 338.085 171.754 339.839C173.083 341.594 173.727 343.772 173.567 345.966C173.408 348.161 172.454 350.223 170.885 351.766C169.316 353.31 167.239 354.23 165.04 354.355V354.265ZM163.971 352.452C164.956 352.706 165.983 352.75 166.986 352.582C167.989 352.413 168.946 352.035 169.793 351.473C170.641 350.91 171.361 350.176 171.906 349.318C172.451 348.459 172.809 347.496 172.958 346.49C173.106 345.484 173.041 344.458 172.767 343.479C172.493 342.5 172.016 341.589 171.366 340.807C170.717 340.024 169.911 339.386 168.999 338.935C168.087 338.484 167.091 338.23 166.074 338.189L58.2564 322.259C56.8534 322.074 55.4271 322.304 54.1531 322.92C52.8792 323.536 51.8132 324.51 51.0866 325.724C50.36 326.937 50.0044 328.337 50.0637 329.75C50.123 331.163 50.5946 332.528 51.4203 333.677C51.9817 334.438 52.6894 335.081 53.502 335.566C54.3146 336.052 55.2158 336.37 56.153 336.504L163.971 352.452Z" fill="#F7A374"/>
<path d="M69.2449 47.1643H68.7372C68.0608 47.034 67.4355 46.7139 66.9346 46.2413C66.4336 45.7688 66.0777 45.1634 65.9084 44.4961C65.7391 43.8288 65.7634 43.127 65.9786 42.473C66.1937 41.819 66.5908 41.2397 67.1233 40.803C67.8847 40.2433 68.8346 40.0027 69.7708 40.1325C70.7063 40.2886 71.5434 40.8047 72.1027 41.5704C72.662 42.336 72.8989 43.2902 72.7627 44.2284V44.2284C72.6041 45.0477 72.1675 45.7872 71.5266 46.3221C70.8857 46.857 70.0798 47.1545 69.2449 47.1643V47.1643ZM69.2449 41.8723C68.9333 41.8961 68.6332 42 68.3736 42.1738C68.114 42.3477 67.9038 42.5857 67.7633 42.8647C67.6228 43.1436 67.5568 43.4542 67.5718 43.7661C67.5868 44.0781 67.6821 44.3809 67.8486 44.6452C68.0687 44.8928 68.3524 45.0755 68.669 45.1733C68.9855 45.2712 69.3229 45.2804 69.6443 45.2001C69.9658 45.1198 70.2591 44.9529 70.4924 44.7177C70.7256 44.4825 70.89 44.1879 70.9675 43.8659C71.0254 43.4112 70.9088 42.9514 70.6411 42.5791C70.5076 42.3927 70.3374 42.2355 70.141 42.1171C69.9445 41.9987 69.726 41.9215 69.4987 41.8904L69.2449 41.8723Z" fill="white"/>
<path d="M79.0729 48.6142H78.547C77.7126 48.5021 76.9432 48.1034 76.3708 47.4864C75.7984 46.8693 75.4586 46.0725 75.4097 45.2324C75.3608 44.3924 75.6058 43.5615 76.1028 42.8823C76.5998 42.203 77.3177 41.7178 78.1335 41.5097C78.9492 41.3017 79.812 41.3838 80.5738 41.742C81.3356 42.1001 81.949 42.7121 82.3088 43.4729C82.6686 44.2336 82.7524 45.0958 82.5457 45.9115C82.3391 46.7272 81.8549 47.4457 81.1763 47.9437C80.5671 48.3905 79.8284 48.626 79.0729 48.6142ZM79.0729 43.3222C78.6623 43.3402 78.2701 43.4971 77.9604 43.7671C77.6507 44.0371 77.442 44.4042 77.3684 44.8083C77.3313 45.0325 77.3395 45.2619 77.3924 45.4828C77.4454 45.7038 77.542 45.912 77.6767 46.0951C77.9561 46.4614 78.3645 46.7076 78.819 46.7838C79.0445 46.8183 79.2747 46.8072 79.4959 46.7511C79.717 46.6951 79.9246 46.5953 80.1065 46.4576C80.473 46.1783 80.7193 45.7701 80.7955 45.3158C80.8534 44.861 80.7368 44.4012 80.4691 44.029C80.3356 43.8426 80.1654 43.6854 79.969 43.567C79.7726 43.4486 79.554 43.3714 79.3267 43.3403L79.0729 43.3222Z" fill="white"/>
<path d="M88.6834 50.0279C88.5147 50.0459 88.3445 50.0459 88.1757 50.0279C87.2382 49.9621 86.3628 49.5352 85.734 48.837C85.1053 48.1388 84.7723 47.2239 84.8052 46.2852C84.8381 45.3464 85.2344 44.457 85.9105 43.8046C86.5866 43.1521 87.4897 42.7874 88.4296 42.7874C89.3694 42.7874 90.2725 43.1521 90.9486 43.8046C91.6247 44.457 92.021 45.3464 92.0539 46.2852C92.0868 47.2239 91.7538 48.1388 91.1251 48.837C90.4963 49.5352 89.6209 49.9621 88.6834 50.0279ZM88.6834 44.754C88.3103 44.7513 87.9468 44.8724 87.6499 45.0983C87.4659 45.2327 87.3115 45.4034 87.1961 45.5998C87.0807 45.7961 87.0068 46.0141 86.9789 46.2401C86.9158 46.6925 87.0259 47.1521 87.2872 47.5268C87.4508 47.7953 87.6815 48.0165 87.9565 48.1689C88.2316 48.3213 88.5416 48.3996 88.856 48.396C89.1705 48.3925 89.4786 48.3073 89.7502 48.1488C90.0217 47.9903 90.2474 47.7639 90.4049 47.4919C90.5625 47.2198 90.6466 46.9115 90.6489 46.5972C90.6512 46.2829 90.5717 45.9734 90.4182 45.6991C90.2647 45.4248 90.0424 45.1951 89.7733 45.0326C89.5041 44.87 89.1973 44.7803 88.8829 44.7721L88.6834 44.754Z" fill="white"/>
<path d="M224.117 79.4602H223.99L69.9884 56.6973C69.7523 56.6571 69.5411 56.527 69.399 56.3344C69.257 56.1417 69.1953 55.9015 69.2268 55.6642C69.2627 55.4298 69.3892 55.2187 69.579 55.0764C69.7689 54.9341 70.007 54.8719 70.2423 54.903L224.244 77.666C224.485 77.6828 224.709 77.7944 224.867 77.9762C225.025 78.1581 225.104 78.3953 225.087 78.6356C225.071 78.8759 224.959 79.0997 224.777 79.2578C224.595 79.4158 224.358 79.4951 224.117 79.4783V79.4602Z" fill="#243762"/>
<path d="M159.909 274.975H159.782L77.6222 262.832C77.3829 262.796 77.1671 262.668 77.0214 262.475C76.8756 262.282 76.8114 262.039 76.8425 261.799C76.8603 261.682 76.9011 261.568 76.9626 261.466C77.0242 261.364 77.1053 261.275 77.2013 261.204C77.2973 261.134 77.4063 261.083 77.5221 261.054C77.6379 261.026 77.7582 261.02 77.8761 261.038L160.054 273.181C160.172 273.199 160.285 273.239 160.387 273.301C160.49 273.362 160.579 273.443 160.649 273.539C160.72 273.635 160.771 273.744 160.8 273.86C160.828 273.976 160.834 274.096 160.816 274.214C160.777 274.427 160.666 274.619 160.5 274.759C160.335 274.898 160.125 274.974 159.909 274.975Z" fill="white"/>
<path d="M111.277 277.802H111.132L76.1898 272.583C75.9493 272.549 75.7321 272.421 75.5859 272.228C75.4396 272.034 75.3764 271.79 75.4101 271.55C75.4438 271.309 75.5716 271.092 75.7654 270.946C75.9592 270.8 76.2032 270.737 76.4436 270.77L111.422 275.954C111.656 275.99 111.868 276.116 112.01 276.306C112.152 276.496 112.215 276.733 112.183 276.969C112.165 277.196 112.062 277.408 111.894 277.563C111.725 277.718 111.505 277.803 111.277 277.802Z" fill="white"/>
<path d="M99.4905 285.432H99.3454L74.8117 281.808C74.6926 281.79 74.5782 281.749 74.4751 281.687C74.3719 281.625 74.282 281.543 74.2104 281.446C74.1389 281.349 74.0871 281.239 74.058 281.123C74.0289 281.006 74.0232 280.884 74.041 280.765C74.0589 280.646 74.1 280.532 74.1621 280.429C74.2241 280.326 74.3059 280.236 74.4027 280.165C74.4996 280.093 74.6095 280.041 74.7264 280.012C74.8432 279.983 74.9646 279.977 75.0837 279.995L99.6174 283.62C99.8534 283.66 100.065 283.79 100.207 283.983C100.349 284.175 100.411 284.416 100.379 284.653C100.349 284.868 100.242 285.064 100.079 285.207C99.9162 285.35 99.7073 285.43 99.4905 285.432Z" fill="white"/>
<path d="M158.458 284.78H158.331L122.193 279.452C121.957 279.411 121.745 279.281 121.603 279.089C121.461 278.896 121.4 278.656 121.431 278.418C121.447 278.3 121.486 278.185 121.547 278.082C121.608 277.978 121.689 277.888 121.785 277.817C121.882 277.746 121.992 277.695 122.109 277.668C122.225 277.64 122.347 277.637 122.465 277.657L158.603 282.986C158.844 283.005 159.067 283.119 159.223 283.302C159.38 283.486 159.457 283.724 159.438 283.964C159.418 284.205 159.304 284.427 159.121 284.584C158.937 284.74 158.699 284.817 158.458 284.798V284.78Z" fill="white"/>
<path d="M149.882 206.831H149.755L67.5767 194.652C67.3362 194.616 67.12 194.486 66.9754 194.291C66.8309 194.095 66.77 193.851 66.806 193.61C66.8421 193.37 66.9722 193.154 67.1678 193.009C67.3633 192.865 67.6082 192.804 67.8487 192.84L150.008 205.001C150.246 205.032 150.462 205.157 150.608 205.347C150.754 205.537 150.819 205.778 150.788 206.016C150.762 206.238 150.655 206.444 150.488 206.594C150.322 206.744 150.106 206.828 149.882 206.831Z" fill="white"/>
<path d="M101.231 209.659H101.104L66.1261 204.493C66.0071 204.476 65.8927 204.434 65.7895 204.372C65.6864 204.31 65.5964 204.229 65.5249 204.132C65.4533 204.035 65.4015 203.925 65.3725 203.808C65.3434 203.692 65.3376 203.57 65.3555 203.451C65.3733 203.332 65.4145 203.218 65.4766 203.115C65.5386 203.012 65.6204 202.922 65.7172 202.85C65.814 202.779 65.924 202.727 66.0408 202.698C66.1577 202.669 66.2791 202.663 66.3981 202.681L101.376 207.846C101.617 207.865 101.84 207.979 101.996 208.163C102.153 208.346 102.23 208.585 102.21 208.825C102.191 209.065 102.077 209.288 101.894 209.444C101.71 209.601 101.472 209.678 101.231 209.659Z" fill="white"/>
<path d="M137.569 224.393H137.443L66.5251 213.392C66.2846 213.356 66.0683 213.226 65.9238 213.03C65.7793 212.835 65.7183 212.59 65.7544 212.35C65.7905 212.109 65.9206 211.893 66.1161 211.749C66.3117 211.604 66.5566 211.543 66.7971 211.58L137.714 222.58C137.834 222.59 137.95 222.623 138.056 222.677C138.162 222.731 138.257 222.806 138.334 222.897C138.412 222.988 138.471 223.093 138.507 223.207C138.544 223.32 138.558 223.44 138.549 223.559C138.539 223.678 138.506 223.794 138.452 223.9C138.397 224.007 138.323 224.101 138.232 224.179C138.141 224.256 138.036 224.315 137.922 224.352C137.808 224.388 137.689 224.402 137.569 224.393Z" fill="white"/>
<path d="M148.431 216.636H148.304L112.165 211.199C112.046 211.183 111.93 211.144 111.826 211.084C111.722 211.023 111.631 210.942 111.558 210.846C111.486 210.75 111.433 210.64 111.403 210.523C111.374 210.407 111.368 210.285 111.386 210.166C111.426 209.93 111.556 209.719 111.749 209.577C111.941 209.435 112.182 209.373 112.419 209.405L148.558 214.751C148.798 214.768 149.022 214.88 149.18 215.061C149.338 215.243 149.418 215.48 149.401 215.721C149.384 215.961 149.272 216.185 149.091 216.343C148.909 216.501 148.671 216.58 148.431 216.563V216.636Z" fill="white"/>
<path d="M67.1233 69.0031L183.173 86.1659C184.079 86.3003 184.894 86.7876 185.441 87.5211C185.988 88.2547 186.222 89.1749 186.093 90.0805L181.541 120.183C181.407 121.088 180.919 121.903 180.185 122.45C179.451 122.997 178.531 123.231 177.625 123.101L78.4019 108.421L64.5303 118.951L66.3436 106.645L61.5384 105.938C61.0889 105.872 60.6569 105.717 60.2674 105.484C59.8779 105.25 59.5386 104.941 59.2689 104.576C58.9993 104.21 58.8046 103.795 58.6962 103.354C58.5878 102.913 58.5677 102.455 58.6372 102.006L63.0797 71.9209C63.1478 71.4613 63.3073 71.02 63.5488 70.6231C63.7902 70.2261 64.1088 69.8815 64.4857 69.6095C64.8626 69.3375 65.2901 69.1438 65.7431 69.0396C66.1961 68.9355 66.6654 68.923 67.1233 69.0031V69.0031Z" fill="#F7A374"/>
<path d="M181.541 121.09H181.36C181.125 121.054 180.914 120.927 180.772 120.738C180.63 120.548 180.567 120.31 180.598 120.075L185.041 89.9718C185.086 89.6535 185.068 89.3295 184.987 89.0184C184.906 88.7072 184.764 88.4153 184.57 88.1594C184.374 87.8871 184.125 87.6569 183.839 87.4826C183.552 87.3082 183.233 87.1933 182.901 87.1445L110.842 76.5061C110.605 76.4659 110.394 76.3359 110.252 76.1432C110.11 75.9505 110.048 75.7103 110.08 75.4731C110.098 75.3552 110.138 75.242 110.2 75.1399C110.262 75.0378 110.343 74.9488 110.439 74.8781C110.535 74.8074 110.644 74.7563 110.76 74.7278C110.875 74.6993 110.996 74.6939 111.114 74.7119L183.173 85.2597C183.748 85.3538 184.298 85.5628 184.791 85.8742C185.283 86.1856 185.707 86.593 186.038 87.072C186.386 87.5297 186.638 88.0531 186.778 88.6106C186.918 89.1682 186.944 89.7483 186.854 90.3161L182.448 120.347C182.406 120.556 182.293 120.745 182.128 120.88C181.962 121.015 181.755 121.09 181.541 121.09V121.09Z" fill="#243762"/>
<path d="M164.787 93.7051H164.66L82.4819 81.5443C82.364 81.5266 82.2507 81.4859 82.1486 81.4243C82.0464 81.3628 81.9575 81.2817 81.8867 81.1858C81.816 81.0898 81.7649 80.9808 81.7363 80.8651C81.7078 80.7494 81.7024 80.6291 81.7204 80.5113C81.7605 80.2754 81.8907 80.0642 82.0835 79.9223C82.2762 79.7803 82.5166 79.7186 82.7539 79.7501L164.914 91.9109C165.032 91.924 165.146 91.9612 165.249 92.0201C165.353 92.079 165.443 92.1585 165.514 92.2536C165.586 92.3487 165.637 92.4574 165.664 92.573C165.692 92.6887 165.696 92.8087 165.675 92.9258C165.645 93.1405 165.539 93.3371 165.376 93.4801C165.213 93.6231 165.004 93.7029 164.787 93.7051V93.7051Z" fill="white"/>
<path d="M116.082 96.5324L81.0313 91.3491C80.9122 91.3313 80.7978 91.2901 80.6947 91.2281C80.5915 91.1661 80.5016 91.0844 80.43 90.9876C80.3585 90.8908 80.3067 90.7809 80.2776 90.6641C80.2486 90.5474 80.2428 90.426 80.2606 90.307C80.2785 90.188 80.3196 90.0737 80.3817 89.9706C80.4438 89.8675 80.5255 89.7776 80.6223 89.7061C80.7192 89.6346 80.8291 89.5828 80.946 89.5537C81.0628 89.5247 81.1842 89.5189 81.3033 89.5368L116.281 94.7019C116.522 94.7212 116.745 94.8351 116.901 95.0186C117.058 95.2022 117.135 95.4403 117.116 95.6806C117.096 95.9209 116.982 96.1438 116.799 96.3001C116.615 96.4565 116.377 96.5335 116.136 96.5143L116.082 96.5324Z" fill="white"/>
<path d="M152.475 111.285H152.348L81.4302 100.284C81.1941 100.244 80.9828 100.114 80.8408 99.9211C80.6988 99.7284 80.637 99.4882 80.6686 99.251C80.6863 99.1331 80.7271 99.0199 80.7887 98.9178C80.8502 98.8157 80.9314 98.7268 81.0274 98.656C81.1234 98.5853 81.2324 98.5343 81.3482 98.5057C81.464 98.4772 81.5843 98.4718 81.7022 98.4898L152.62 109.473C152.856 109.513 153.067 109.643 153.209 109.835C153.351 110.028 153.413 110.268 153.381 110.506C153.35 110.723 153.241 110.922 153.075 111.066C152.908 111.209 152.695 111.287 152.475 111.285Z" fill="white"/>
<path d="M163.336 103.51H163.227L127.089 98.0729C126.97 98.0563 126.855 98.0163 126.751 97.9554C126.648 97.8945 126.557 97.8137 126.485 97.7178C126.412 97.6219 126.359 97.5127 126.329 97.3963C126.299 97.28 126.292 97.1589 126.309 97.0399C126.326 96.9209 126.366 96.8064 126.426 96.7028C126.487 96.5992 126.568 96.5087 126.664 96.4363C126.76 96.3639 126.869 96.3112 126.986 96.281C127.102 96.2509 127.223 96.2439 127.342 96.2606L163.481 101.607C163.722 101.624 163.946 101.735 164.104 101.917C164.262 102.099 164.341 102.336 164.324 102.577C164.307 102.817 164.196 103.041 164.014 103.199C163.832 103.357 163.595 103.436 163.354 103.419L163.336 103.51Z" fill="white"/>
<path d="M178.441 151.446H178.314L96.1359 139.285C96.0168 139.268 95.9024 139.226 95.7993 139.164C95.6961 139.102 95.6062 139.021 95.5346 138.924C95.3901 138.728 95.3292 138.484 95.3652 138.243C95.4013 138.003 95.5314 137.787 95.727 137.642C95.9225 137.498 96.1674 137.437 96.4079 137.473L178.568 149.616C178.808 149.633 179.032 149.744 179.19 149.926C179.348 150.108 179.428 150.345 179.411 150.585C179.394 150.826 179.282 151.049 179.1 151.208C178.918 151.366 178.681 151.445 178.441 151.428V151.446Z" fill="white"/>
<path d="M129.79 154.255H129.663L94.6852 149.09C94.4491 149.05 94.2378 148.92 94.0958 148.727C93.9538 148.535 93.892 148.294 93.9236 148.057C93.9413 147.939 93.9821 147.826 94.0437 147.724C94.1052 147.622 94.1864 147.533 94.2824 147.462C94.3784 147.391 94.4874 147.34 94.6032 147.312C94.719 147.283 94.8393 147.278 94.9572 147.296L129.935 152.461C130.176 152.48 130.399 152.594 130.555 152.778C130.712 152.961 130.789 153.199 130.769 153.44C130.75 153.68 130.636 153.903 130.453 154.059C130.269 154.216 130.031 154.293 129.79 154.273V154.255Z" fill="white"/>
<path d="M118.004 161.885H117.895L93.3434 158.261C93.2244 158.243 93.11 158.202 93.0068 158.14C92.9036 158.078 92.8137 157.996 92.7422 157.899C92.6706 157.802 92.6188 157.692 92.5897 157.576C92.5607 157.459 92.5549 157.337 92.5728 157.218C92.5906 157.099 92.6318 156.985 92.6938 156.882C92.7559 156.779 92.8377 156.689 92.9345 156.618C93.0313 156.546 93.1413 156.494 93.2581 156.465C93.3749 156.436 93.4963 156.43 93.6154 156.448L118.167 160.073C118.408 160.092 118.631 160.206 118.787 160.39C118.944 160.573 119.021 160.811 119.001 161.052C118.982 161.292 118.868 161.515 118.685 161.671C118.501 161.827 118.263 161.904 118.022 161.885H118.004Z" fill="white"/>
<path d="M176.99 161.233H176.863L140.725 155.796C140.484 155.762 140.267 155.634 140.121 155.441C139.974 155.247 139.911 155.003 139.945 154.763C139.979 154.522 140.106 154.305 140.3 154.159C140.494 154.013 140.738 153.95 140.978 153.983L177.117 159.33C177.358 159.347 177.581 159.458 177.74 159.64C177.898 159.822 177.977 160.059 177.96 160.299C177.943 160.54 177.832 160.764 177.65 160.922C177.468 161.08 177.231 161.159 176.99 161.142V161.233Z" fill="white"/>
</svg>
